<svg viewBox="0 0 32 32" xmlns="http://www.w3.org/2000/svg">
  <rect width="32" height="32" rx="7" fill="#f5f3ee"></rect>
  <g transform="translate(4,4)">
  <path d="M12 1.5 C9 2.2 6.5 5.2 6.5 8.2 L11 8.2 L11 2.2 Z" fill="#e8552e"></path>
  <path d="M12 1.5 C15 2.2 17.5 5.2 17.5 8.2 L13 8.2 L13 2.2 Z" fill="#e8552e"></path>
  <rect x="10.75" y="1" width="2.5" height="7.8" rx="1.25" fill="#e8552e"></rect>
  <path d="M10 8.2 L12 10.8 L14 8.2 Z" fill="#e8552e"></path>
  <rect x="2" y="14" width="20" height="8.5" rx="2.5" fill="#e8552e"></rect>
  <rect x="7" y="10.5" width="10" height="5.5" rx="1.5" fill="#e8552e"></rect>
  <circle cx="18.5" cy="17.5" r="1.5" fill="#f5f3ee"></circle>
  <rect x="8.5" y="20.5" width="7" height="2" rx="1" fill="#f5f3ee"></rect>
  <rect x="9" y="10.5" width="6" height="2.2" rx="1" fill="#f5f3ee"></rect>
  </g>
</svg>